# xmcd CD database file
#
# Track frame offsets:
#	150
#	16314
#	31779
#	46175
#	63511
#	81377
#	95962
#	116105
#	132335
#	150548
#	165393
#
# Disc length: 2452 seconds
#
# Revision: 2
# Processed by: cddbd v1.5.2PL0 Copyright (c) Steve Scherf et al.
# Submitted via: CDex 1.70beta3
#
DISCID=8a09920b
DTITLE=Just Surrender - If These Streets Could Talk
DYEAR=2005
DGENRE=Rock
TTITLE0=I Can Barely Breathe
TTITLE1=Of All We've Known
TTITLE2=Tell Me Everything
TTITLE3=In Your Silence
TTITLE4=Our Work Of Art
TTITLE5=What We've Become
TTITLE6=You Tell A Tale
TTITLE7=Forgetten Not Forgiven
TTITLE8=Is There No Truth In Beauty
TTITLE9=She Broken My Heart, So I Broke His Jaw
TTITLE10=Which Burns More
EXTD=YEAR: 2005
EXTT0=
EXTT1=
EXTT2=
EXTT3=
EXTT4=
EXTT5=
EXTT6=
EXTT7=
EXTT8=
EXTT9=
EXTT10=
PLAYORDER=
